<?xml version="1.0" encoding="UTF-8" standalone="no"?>
<!-- Created with Inkscape (http://www.inkscape.org/) -->

<svg
   width="143"
   height="36"
   viewBox="0 0 143 36"
   version="1.1"
   id="svg8"
   inkscape:version="1.4 (e7c3feb100, 2024-10-09)"
   sodipodi:docname="other.svg"
   xml:space="preserve"
   xmlns:inkscape="http://www.inkscape.org/namespaces/inkscape"
   xmlns:sodipodi="http://sodipodi.sourceforge.net/DTD/sodipodi-0.dtd"
   xmlns="http://www.w3.org/2000/svg"
   xmlns:svg="http://www.w3.org/2000/svg"><defs
     id="defs2"><style
       id="current-color-scheme"
       type="text/css">.ColorScheme-Text {
        color:#363636;
      }</style><style
       id="current-color-scheme-6"
       type="text/css">.ColorScheme-Text {
        color:#363636;
      }</style></defs><sodipodi:namedview
     id="base"
     pagecolor="#4d4d4d"
     bordercolor="#666666"
     borderopacity="1.0"
     inkscape:pageopacity="0"
     inkscape:pageshadow="2"
     inkscape:zoom="0.45254834"
     inkscape:cx="1067.2893"
     inkscape:cy="122.63883"
     inkscape:document-units="px"
     inkscape:current-layer="svg8"
     showgrid="false"
     units="px"
     inkscape:window-width="1920"
     inkscape:window-height="1014"
     inkscape:window-x="0"
     inkscape:window-y="0"
     inkscape:window-maximized="1"
     inkscape:pagecheckerboard="0"
     inkscape:snap-bbox="true"
     inkscape:bbox-nodes="true"
     inkscape:snap-nodes="true"
     inkscape:snap-bbox-edge-midpoints="true"
     inkscape:showpageshadow="2"
     inkscape:deskcolor="#333333"><inkscape:grid
       type="xygrid"
       id="grid28"
       originx="0"
       originy="0"
       spacingy="1"
       spacingx="1"
       units="px"
       visible="false" /></sodipodi:namedview><g
     id="select_w"
     transform="translate(2,-287.47498)"><rect
       id="rect1"
       width="10"
       height="48"
       x="0"
       y="281.47498"
       style="fill:none" /><path
       id="path5"
       d="m 8,287.47498 c -4.4319982,0 -8,3.568 -8,8 v 20 c 0,4.432 3.5680018,8 8,8 h 2 v -36 z"
       style="fill:#2547f4;fill-opacity:1" /></g><g
     id="select_e"
     transform="translate(-3,-287.47498)"><rect
       id="rect3"
       width="15"
       height="48"
       x="128"
       y="281.47498"
       style="fill:none" /><path
       id="path6"
       d="m 135,287.47498 c 4.432,0 8,3.568 8,8 v 20 c 0,4.432 -3.568,8 -8,8 h -7 v -36 z"
       style="fill:#2547f4;fill-opacity:1" /></g><g
     id="select_c"
     transform="translate(-3,-287.47498)"><rect
       id="rect2"
       width="113"
       height="48"
       x="15"
       y="281.47498"
       rx="0"
       ry="0"
       style="fill:none" /><rect
       id="rect5"
       width="113"
       height="36"
       x="15"
       y="287.47498"
       rx="0"
       ry="0"
       style="fill:#2547f4;fill-opacity:1" /></g><g
     id="window"
     transform="translate(342,-1104.5)"><rect
       id="rect8"
       width="1920"
       height="1080"
       x="-9.3749998e-07"
       y="2.03125e-05"
       rx="0"
       ry="0"
       style="fill:none" /><g
       id="g8"><g
         id="g215"
         transform="translate(-1047.8042,916.75769)"><rect
           style="fill:#ffffff;fill-opacity:1;stroke-width:0.548541"
           id="rect192"
           width="26"
           height="8"
           x="1919.01"
           y="1233.7373"
           rx="4"
           ry="4"
           transform="rotate(-45)" /><rect
           style="fill:#ffffff;fill-opacity:1;stroke-width:0.950101"
           id="rect193"
           width="78"
           height="8"
           x="1893.01"
           y="1264.3036"
           rx="4"
           ry="4"
           transform="rotate(-45)" /><rect
           style="fill:#ffffff;fill-opacity:1;stroke-width:1.26376"
           id="rect194"
           width="138"
           height="8"
           x="1863.01"
           y="1294.8698"
           rx="4"
           ry="4"
           transform="rotate(-45)" /><rect
           style="fill:#ffffff;fill-opacity:1;stroke-width:1.75125"
           id="rect195"
           width="265"
           height="8"
           x="1799.51"
           y="1356.0023"
           rx="4"
           ry="4"
           transform="rotate(-45)" /><rect
           style="fill:#ffffff;fill-opacity:1;stroke-width:1.52139"
           id="rect196"
           width="200"
           height="8"
           x="1832.01"
           y="1386.5685"
           rx="4"
           ry="4"
           transform="rotate(-45)" /><rect
           style="fill:#ffffff;fill-opacity:1;stroke-width:0.548541"
           id="rect197"
           width="26"
           height="8"
           x="1919.01"
           y="-1486.2672"
           rx="4"
           ry="4"
           transform="matrix(0.70710678,-0.70710678,-0.70710678,-0.70710678,0,0)" /><rect
           style="fill:#ffffff;fill-opacity:1;stroke-width:0.950101"
           id="rect198"
           width="78"
           height="8"
           x="1893.01"
           y="-1455.7009"
           rx="4"
           ry="4"
           transform="matrix(0.70710678,-0.70710678,-0.70710678,-0.70710678,0,0)" /><g
           id="g206"
           transform="rotate(-45,2174.0723,-775.61224)"><rect
             style="fill:#ffffff;fill-opacity:1;stroke-width:0.897167"
             id="rect199"
             width="69.549896"
             height="8"
             x="2053.0815"
             y="-439.03677"
             rx="4"
             ry="4" /><rect
             style="fill:#ffffff;fill-opacity:1;stroke-width:0.772362"
             id="rect200"
             width="51.54565"
             height="8"
             x="1918.0496"
             y="-439.03677"
             rx="4"
             ry="4" /><rect
             style="fill:#ffffff;fill-opacity:1;stroke-width:0.304278"
             id="rect201"
             width="8"
             height="8"
             x="1976.8429"
             y="-439.03677"
             rx="4"
             ry="4" /><rect
             style="fill:#ffffff;fill-opacity:1;stroke-width:0.304278"
             id="rect202"
             width="8"
             height="8"
             x="1992.0907"
             y="-439.03677"
             rx="4"
             ry="4" /><rect
             style="fill:#ffffff;fill-opacity:1;stroke-width:0.304278"
             id="rect203"
             width="8"
             height="8"
             x="2007.3384"
             y="-439.03677"
             rx="4"
             ry="4" /><rect
             style="fill:#ffffff;fill-opacity:1;stroke-width:0.304278"
             id="rect204"
             width="8"
             height="8"
             x="2022.5861"
             y="-439.03677"
             rx="4"
             ry="4" /><rect
             style="fill:#ffffff;fill-opacity:1;stroke-width:0.304278"
             id="rect206"
             width="8"
             height="8"
             x="2037.8339"
             y="-439.03677"
             rx="4"
             ry="4" /></g><g
           id="g213"
           transform="rotate(-45,2151.529,-802.72279)"><rect
             style="fill:#ffffff;fill-opacity:1;stroke-width:0.772362"
             id="rect208"
             width="51.54565"
             height="8"
             x="1928.7697"
             y="-339.33807"
             rx="4"
             ry="4" /><rect
             style="fill:#ffffff;fill-opacity:1;stroke-width:0.304278"
             id="rect209"
             width="8"
             height="8"
             x="1987.563"
             y="-339.33807"
             rx="4"
             ry="4" /><rect
             style="fill:#ffffff;fill-opacity:1;stroke-width:0.304278"
             id="rect210"
             width="8"
             height="8"
             x="2002.8108"
             y="-339.33807"
             rx="4"
             ry="4" /><rect
             style="fill:#ffffff;fill-opacity:1;stroke-width:0.304278"
             id="rect211"
             width="8"
             height="8"
             x="2018.0585"
             y="-339.33807"
             rx="4"
             ry="4" /><rect
             style="fill:#ffffff;fill-opacity:1;stroke-width:0.304278"
             id="rect212"
             width="8"
             height="8"
             x="2033.3062"
             y="-339.33807"
             rx="4"
             ry="4" /><rect
             style="fill:#ffffff;fill-opacity:1;stroke-width:0.304278"
             id="rect213"
             width="8"
             height="8"
             x="2048.554"
             y="-339.33807"
             rx="4"
             ry="4" /></g></g><rect
         x="-1189.2091"
         y="203.82549"
         width="160"
         height="32"
         rx="16"
         ry="16"
         fill="#ffffff"
         stroke-linecap="round"
         stroke-linejoin="round"
         stroke-width="1.7997"
         style="opacity:1;paint-order:stroke fill markers"
         id="rect272"
         transform="scale(-1,1)" /><text
         x="1056.1166"
         y="223.78819"
         fill="#abc0e2"
         font-family="Montserrat"
         font-size="12.752px"
         stroke-linecap="round"
         stroke-linejoin="round"
         stroke-width="0.26567"
         style="opacity:1;fill:#020412;fill-opacity:1;paint-order:stroke fill markers"
         xml:space="preserve"
         id="text272"><tspan
           x="1056.1166"
           y="223.78819"
           fill="#abc0e2"
           font-family="Montserrat"
           stroke-width="0.26567"
           id="tspan272"
           style="fill:#020412;fill-opacity:1">Select Your System</tspan></text><path
         d="m 1043.6592,213.66546 c 0.1278,0 0.2555,0.0505 0.3535,0.14843 0.1958,0.19587 0.1958,0.51117 0,0.70704 l -4.8047,4.8027 h 9.5 c 0.277,0 0.5,0.223 0.5,0.5 0,0.277 -0.223,0.5 -0.5,0.5 h -9.5 l 4.8047,4.8027 c 0.1958,0.19587 0.1958,0.51117 0,0.70704 -0.1959,0.19587 -0.5112,0.19587 -0.7071,0 l -5.6582,-5.6562 c -0.1958,-0.19586 -0.1958,-0.51117 0,-0.70704 l 5.6582,-5.6562 c 0.098,-0.0979 0.2258,-0.14839 0.3536,-0.14843 z"
         fill="#abc0e2"
         stroke-linecap="round"
         stroke-linejoin="round"
         stroke-width="1.7596"
         style="opacity:1;fill:#020412;fill-opacity:1;paint-order:stroke fill markers"
         id="path272" /><g
         id="g7"
         transform="translate(2.5e-5)"><path
           d="m 1465,839.62993 c -1.108,0 -2,0.892 -2,2 v 9 c 0,1.108 0.892,2 2,2 h 12 c 1.108,0 2,-0.892 2,-2 v -9 c 0,-1.108 -0.892,-2 -2,-2 z m 0,1 h 12 c 0.554,0 1,0.446 1,1 v 9 c 0,0.554 -0.446,1 -1,1 h -12 c -0.554,0 -1,-0.446 -1,-1 v -9 c 0,-0.554 0.446,-1 1,-1 z m 1.7188,1 -0.7187,0.6875 2.625,2.8125 -2.5938,2.8125 0.6875,0.6875 2.9688,-3.1562 0.3125,-0.34375 -0.3125,-0.34375 z m 3.2812,7 v 1 h 4 v -1 z"
           fill="#ffffff"
           id="path135" /><path
           d="m 1296.9998,837.62985 c -0.528,-1e-5 -1.0357,0.20965 -1.4082,0.58398 -0.3702,0.37201 -0.578,0.87775 -0.5781,1.4023 -0.01,0.54777 -0.4426,0.97755 -0.9902,0.97852 -0.1629,-0.002 -0.3209,-0.0477 -0.4609,-0.13086 a 0.50005,0.50005 0 0 0 -0.01,-0.004 c -0.9482,-0.54336 -2.1711,-0.2126 -2.7167,0.73438 l -0.5157,0.84766 a 0.50005,0.50005 0 0 0 -0.01,0.01 c -0.5449,0.94581 -0.2189,2.168 0.7246,2.7168 a 0.50005,0.50005 0 0 0 0,0.002 c 0.3079,0.17772 0.4961,0.50395 0.4961,0.85938 0,0.35554 -0.1881,0.68159 -0.4961,0.85938 -0.9434,0.54576 -1.2713,1.7669 -0.7265,2.7109 a 0.50005,0.50005 0 0 0 0,0.002 l 0.4883,0.8418 c 0,0 0,0.002 0,0.002 0.2571,0.46235 0.6883,0.80462 1.1973,0.94922 0.5098,0.14497 1.0572,0.0795 1.5195,-0.17969 a 0.50005,0.50005 0 0 0 0.01,-0.004 c 0.2255,-0.13165 0.4938,-0.16716 0.7461,-0.0996 0.2524,0.0675 0.4661,0.23231 0.5957,0.45898 a 0.50005,0.50005 0 0 0 0,0.008 c 0.083,0.14076 0.1292,0.29929 0.1309,0.46289 0,1.0925 0.899,1.9883 1.9922,1.9883 h 0.9785 c 1.0911,0 1.987,-0.89332 1.9922,-1.9844 a 0.50005,0.50005 0 0 0 0,-0.004 c 0,-0.26322 0.1029,-0.51496 0.2891,-0.70117 0.1851,-0.18507 0.4357,-0.2872 0.6973,-0.28711 0.1654,0.005 0.3287,0.051 0.4726,0.13281 0.9455,0.54308 2.1684,0.21626 2.7168,-0.72656 l 0.5098,-0.85156 a 0.50005,0.50005 0 0 0 0,-0.006 c 0.266,-0.45645 0.3393,-0.99921 0.2031,-1.5098 -0.1361,-0.51046 -0.4698,-0.94747 -0.9277,-1.2109 -0.2276,-0.13092 -0.3933,-0.34587 -0.461,-0.59961 -0.068,-0.25363 -0.033,-0.52315 0.1,-0.75 a 0.50005,0.50005 0 0 0 0,-0.004 c 0.085,-0.1488 0.2085,-0.27212 0.3575,-0.35742 a 0.50005,0.50005 0 0 0 0,-0.002 c 0.8992,-0.52597 1.2257,-1.6612 0.7774,-2.5859 a 0.50005,0.50005 0 0 0 -0.053,-0.13086 l -0.4863,-0.84375 c -0.5457,-0.94691 -1.7685,-1.2777 -2.7168,-0.73438 a 0.50005,0.50005 0 0 0 -0.01,0.004 c -0.2257,0.13295 -0.4944,0.17132 -0.7481,0.10547 -0.2536,-0.0658 -0.4709,-0.23099 -0.6035,-0.45703 a 0.50005,0.50005 0 0 0 0,-0.002 c -0.083,-0.14063 -0.1291,-0.29929 -0.1309,-0.46289 v 0.0195 c 0.015,-0.53821 -0.1872,-1.0612 -0.5625,-1.4473 -0.3752,-0.38603 -0.8913,-0.60374 -1.4297,-0.60352 H 1297 Z m 0,1 h 0.9786 c 0.2684,-1.2e-4 0.5257,0.10822 0.7129,0.30078 0.1871,0.19253 0.287,0.45232 0.2793,0.7207 a 0.50005,0.50005 0 0 0 0,0.0195 c 0,0.33821 0.097,0.6697 0.2695,0.96094 0.2667,0.45468 0.7026,0.78549 1.2129,0.91797 0.508,0.13186 1.049,0.0576 1.502,-0.20703 0.4801,-0.2751 1.0773,-0.11421 1.3535,0.36523 l 0.4687,0.8125 a 0.50005,0.50005 0 0 0 0.018,0.0352 c 0.2726,0.47764 0.1134,1.0719 -0.3613,1.3496 -0.3002,0.17284 -0.5497,0.42233 -0.7227,0.72266 v 0.002 c -0.2651,0.45616 -0.3391,0.99992 -0.2031,1.5098 0.1362,0.51038 0.4697,0.9455 0.9278,1.209 0.2275,0.13093 0.3932,0.3479 0.4609,0.60156 0.067,0.25234 0.031,0.51999 -0.1,0.74609 -7e-4,10e-4 7e-4,0.003 0,0.004 l -0.5117,0.85156 a 0.50005,0.50005 0 0 0 0,0.006 c -0.2778,0.47762 -0.8747,0.63719 -1.3535,0.36133 a 0.50005,0.50005 0 0 0 0,-0.002 c -0.2896,-0.1656 -0.6158,-0.25672 -0.9492,-0.26562 a 0.50005,0.50005 0 0 0 -0.01,0 c -0.5299,-0.003 -1.0394,0.20741 -1.4141,0.58203 -0.3745,0.37457 -0.5846,0.88233 -0.5821,1.4121 0,0.55042 -0.4411,0.98438 -0.9922,0.98438 h -0.9785 c -0.5543,0 -0.9941,-0.43796 -0.9941,-0.99219 a 0.50005,0.50005 0 0 0 0,-0.006 c 0,-0.33749 -0.096,-0.66827 -0.2676,-0.95898 -0.2621,-0.45657 -0.6945,-0.79164 -1.2031,-0.92774 -0.5068,-0.13569 -1.0479,-0.063 -1.502,0.19922 -0.2306,0.12928 -0.5016,0.16018 -0.7559,0.0879 -0.2542,-0.0722 -0.4695,-0.24144 -0.5976,-0.47266 a 0.50005,0.50005 0 0 0 0,-0.01 l -0.4922,-0.84766 c -0.2748,-0.47621 -0.1166,-1.0704 0.3594,-1.3457 0.6159,-0.35561 0.9961,-1.0154 0.9961,-1.7266 0,-0.71066 -0.3809,-1.3689 -0.9961,-1.7246 v -0.002 c -0.4765,-0.27816 -0.635,-0.87326 -0.3594,-1.3516 l 0.5156,-0.84766 a 0.50005,0.50005 0 0 0 0.01,-0.01 c 0.2762,-0.47941 0.8735,-0.64227 1.3535,-0.36719 0.2902,0.17048 0.6204,0.26409 0.957,0.26758 a 0.50005,0.50005 0 0 0 0.01,0 c 1.0839,1.4e-4 1.9766,-0.88107 1.9922,-1.9648 a 0.50005,0.50005 0 0 0 0,-0.01 c 0,-0.26248 0.102,-0.51319 0.2871,-0.69922 0.1852,-0.186 0.4369,-0.29102 0.6993,-0.29102 z m 0.4903,4 c -1.6509,0 -3,1.3491 -3,3 0,1.6509 1.3491,3 3,3 1.6509,0 3,-1.3491 3,-3 0,-1.6509 -1.3491,-3 -3,-3 z m 0,1 c 1.1105,0 2,0.88951 2,2 0,1.11049 -0.8895,2 -2,2 -1.1105,0 -2,-0.88951 -2,-2 0,-1.11049 0.8895,-2 2,-2 z"
           clip-rule="evenodd"
           color="#000000"
           color-rendering="auto"
           dominant-baseline="auto"
           fill="#ffffff"
           fill-rule="evenodd"
           image-rendering="auto"
           shape-rendering="auto"
           solid-color="#000000"
           stop-color="#000000"
           style="font-variant-ligatures:normal;font-variant-position:normal;font-variant-caps:normal;font-variant-numeric:normal;font-variant-alternates:normal;font-variant-east-asian:normal;font-feature-settings:normal;font-variation-settings:normal;text-indent:0;text-decoration-line:none;text-decoration-style:solid;text-decoration-color:#000000;text-transform:none;text-orientation:mixed;white-space:normal;shape-padding:0;shape-margin:0;inline-size:0;isolation:auto;mix-blend-mode:normal"
           id="path136" /><path
           class="ColorScheme-Text"
           d="m 1116,838.62993 c -1.108,0 -2,0.892 -2,2 v 10 c 0,1.108 0.892,2 2,2 h 10 c 1.108,0 2,-0.892 2,-2 v -10 c 0,-1.108 -0.892,-2 -2,-2 z m 0,3 h 10 c 0.554,0 1,0.446 1,1 v 8 c 0,0.554 -0.446,1 -1,1 h -10 c -0.554,0 -1,-0.446 -1,-1 v -8 c 0,-0.554 0.446,-1 1,-1 z m 3,2 v 6 l 4,-3 z"
           fill="#ffffff"
           id="path137"
           style="color:#363636" /><path
           d="m 1084,833.62993 c -1.662,0 -3,1.338 -3,3 v 18 c 0,1.662 1.338,3 3,3 h 18 c 1.662,0 3,-1.338 3,-3 v -18 c 0,-1.662 -1.338,-3 -3,-3 z m 15.475,5.9962 c 0.01,-4.1e-4 0.017,0 0.025,0 0.277,0 0.5,0.22299 0.5,0.49999 v 6.0038 c 0,0.20788 -0.1251,0.38525 -0.3047,0.46095 -0.01,0.003 -0.016,0.004 -0.023,0.008 -0.015,0.004 -0.031,0.0113 -0.047,0.0151 -0.024,0.008 -0.049,0.0113 -0.074,0.0151 -0.017,0.002 -0.034,0.002 -0.051,0.002 h -12.793 l 3.3887,3.3887 c 0.1959,0.19578 0.1959,0.51115 0,0.70704 -0.1958,0.19578 -0.5111,0.19578 -0.707,0 l -4.207,-4.209 c -0.01,-0.004 -0.01,-0.0113 -0.015,-0.0151 -0.01,-0.008 -0.013,-0.0113 -0.02,-0.0189 -0.01,-0.008 -0.012,-0.0113 -0.017,-0.0189 v -0.002 c -0.01,-0.008 -0.011,-0.0113 -0.015,-0.0189 -0.01,-0.008 -0.011,-0.0151 -0.015,-0.0227 0,-0.004 -0.01,-0.0113 -0.012,-0.0151 -10e-4,-0.002 0,-0.002 0,-0.004 v -0.002 c 0,-0.008 -0.01,-0.0113 -0.012,-0.0189 0,-0.004 -0.01,-0.008 -0.01,-0.0113 -7e-4,-10e-4 0,-0.003 0,-0.004 -10e-4,-0.002 0,-0.004 0,-0.008 0,-0.004 0,-0.008 -0.01,-0.0113 -6e-4,-10e-4 -10e-4,-0.003 0,-0.004 -10e-4,-0.002 -8e-4,-0.004 0,-0.008 0,-0.008 -0.01,-0.0151 -0.01,-0.0227 0,-0.008 -0.01,-0.0151 -0.01,-0.0227 v -0.002 c -4e-4,-0.001 0,-0.003 0,-0.004 0,-0.0113 -0.01,-0.0189 -0.01,-0.0302 -5e-4,-0.002 -10e-4,-0.004 0,-0.008 -8e-4,-0.003 0,-0.008 0,-0.0113 -10e-4,-0.008 -8e-4,-0.0113 0,-0.0189 -10e-4,-0.008 0,-0.0151 0,-0.0227 v -0.002 c -9e-4,-0.008 0,-0.0113 0,-0.0189 v -0.004 c 0,-0.0151 0,-0.0302 0,-0.0469 0,-0.008 -4e-4,-0.0151 0,-0.0227 v -0.002 c 4e-4,-0.008 10e-4,-0.0151 0,-0.0227 v -0.004 c 7e-4,-0.008 0,-0.0151 0,-0.0227 10e-4,-0.0113 0,-0.0189 0,-0.0302 8e-4,-0.004 10e-4,-0.008 0,-0.0113 9e-4,-0.004 0,-0.008 0,-0.0113 0,-0.0113 0.01,-0.0227 0.01,-0.034 5e-4,-10e-4 10e-4,-0.003 0,-0.004 v -0.002 c 0,-0.008 0.01,-0.0113 0.01,-0.0189 5e-4,-10e-4 10e-4,-0.003 0,-0.004 v -0.002 c 8e-4,-0.002 10e-4,-0.004 0,-0.008 0,-0.004 0.01,-0.0113 0.01,-0.0151 0,-0.008 0.01,-0.0189 0.014,-0.0265 0,-0.004 0.01,-0.0113 0.01,-0.0151 0,-0.008 0.01,-0.0189 0.015,-0.0264 0,-0.004 0.01,-0.0113 0.012,-0.0151 v -0.002 -0.008 c 0,-0.004 0.01,-0.008 0.012,-0.0113 v -0.004 c 0,-0.004 0.01,-0.008 0.01,-0.0113 0,-0.002 0,-0.002 0.01,-0.004 v -0.002 c 0.01,-0.008 0.011,-0.0113 0.017,-0.0189 l 4.2422,-4.2441 c 0.1959,-0.19578 0.5112,-0.19578 0.707,0 0.1959,0.19578 0.1959,0.51114 0,0.70703 l -3.3887,3.3906 h 12.293 v -5.492 c 0,-0.26834 0.2097,-0.48665 0.4747,-0.49999 z"
           fill="#ffffff"
           id="path138" /><path
           d="m 1258,833.62993 c -1.662,0 -3,1.338 -3,3 v 18 c 0,1.662 1.338,3 3,3 h 18 c 1.662,0 3,-1.338 3,-3 v -18 c 0,-1.662 -1.338,-3 -3,-3 z m 4.5,4.998 9,0.004 c 0.277,0 0.5,0.22299 0.5,0.50003 0,0.27704 -0.223,0.49999 -0.5,0.49999 h -8.5 v 5 h 7.5 c 0.277,0 0.5,0.22299 0.5,0.50003 0,0.27704 -0.223,0.49999 -0.5,0.49999 h -7.5 v 6 h 8.5 c 0.277,0 0.5,0.22299 0.5,0.49999 0,0.27704 -0.223,0.5 -0.5,0.5 h -9 c -0.277,0 -0.5,-0.22299 -0.5,-0.5 v -6.9746 c -4e-4,-0.0113 0,-0.0189 0,-0.0265 0,-0.0113 -4e-4,-0.0189 0,-0.0265 v -5.9746 c 0,-0.27704 0.2231,-0.49999 0.5,-0.49999 z"
           fill="#ffffff"
           id="path139" /><path
           d="m 1432,833.62993 c -1.662,0 -3,1.338 -3,3 v 18 c 0,1.662 1.338,3 3,3 h 18 c 1.662,0 3,-1.338 3,-3 v -18 c 0,-1.662 -1.338,-3 -3,-3 z m 9,5 a 7,7 0 0 1 5.7422,3 h -1.2734 a 6,6 0 0 0 -4.4688,-2 6,6 0 0 0 -6,6 6,6 0 0 0 6,6 6,6 0 0 0 4.4688,-2 h 1.2598 a 7,7 0 0 1 -5.7285,3 7,7 0 0 1 -7,-7 7,7 0 0 1 7,-7 z"
           fill="#ffffff"
           id="path140" /><text
           x="1281.2174"
           y="768.07422"
           fill="#ffffff"
           fill-rule="evenodd"
           font-family="Montserrat"
           font-size="18.036px"
           font-weight="300"
           stroke-linecap="square"
           stroke-width="1.503"
           text-anchor="middle"
           style="paint-order:stroke fill markers"
           xml:space="preserve"
           id="text152"><tspan
             x="1281.2174"
             y="768.07422"
             text-align="center"
             id="tspan150">Press the <tspan
   font-family="Montserrat"
   font-weight="bold"
   id="tspan149">Shortcut Key</tspan> to </tspan><tspan
             x="1281.2174"
             y="790.61932"
             text-align="center"
             id="tspan152">Enable the <tspan
   font-family="Montserrat"
   font-weight="bold"
   id="tspan151">Function</tspan></tspan></text><path
           d="m 1465,839.62993 c -1.108,0 -2,0.892 -2,2 v 9 c 0,1.108 0.892,2 2,2 h 12 c 1.108,0 2,-0.892 2,-2 v -9 c 0,-1.108 -0.892,-2 -2,-2 z m 0,1 h 12 c 0.554,0 1,0.446 1,1 v 9 c 0,0.554 -0.446,1 -1,1 h -12 c -0.554,0 -1,-0.446 -1,-1 v -9 c 0,-0.554 0.446,-1 1,-1 z m 1.7188,1 -0.7187,0.6875 2.625,2.8125 -2.5938,2.8125 0.6875,0.6875 2.9688,-3.1562 0.3125,-0.34375 -0.3125,-0.34375 z m 3.2812,7 v 1 h 4 v -1 z"
           fill="#ffffff"
           id="path273" /><path
           d="m 1296.9998,837.62985 c -0.528,-1e-5 -1.0357,0.20965 -1.4082,0.58398 -0.3702,0.37201 -0.578,0.87775 -0.5781,1.4023 -0.01,0.54777 -0.4426,0.97755 -0.9902,0.97852 -0.1629,-0.002 -0.3209,-0.0477 -0.4609,-0.13086 a 0.50005,0.50005 0 0 0 -0.01,-0.004 c -0.9482,-0.54336 -2.1711,-0.2126 -2.7167,0.73438 l -0.5157,0.84766 a 0.50005,0.50005 0 0 0 -0.01,0.01 c -0.5449,0.94581 -0.2189,2.168 0.7246,2.7168 a 0.50005,0.50005 0 0 0 0,0.002 c 0.3079,0.17772 0.4961,0.50395 0.4961,0.85938 0,0.35554 -0.1881,0.68159 -0.4961,0.85938 -0.9434,0.54576 -1.2713,1.7669 -0.7265,2.7109 a 0.50005,0.50005 0 0 0 0,0.002 l 0.4883,0.8418 c 0,0 0,0.002 0,0.002 0.2571,0.46235 0.6883,0.80462 1.1973,0.94922 0.5098,0.14497 1.0572,0.0795 1.5195,-0.17969 a 0.50005,0.50005 0 0 0 0.01,-0.004 c 0.2255,-0.13165 0.4938,-0.16716 0.7461,-0.0996 0.2524,0.0675 0.4661,0.23231 0.5957,0.45898 a 0.50005,0.50005 0 0 0 0,0.008 c 0.083,0.14076 0.1292,0.29929 0.1309,0.46289 0,1.0925 0.899,1.9883 1.9922,1.9883 h 0.9785 c 1.0911,0 1.987,-0.89332 1.9922,-1.9844 a 0.50005,0.50005 0 0 0 0,-0.004 c 0,-0.26322 0.1029,-0.51496 0.2891,-0.70117 0.1851,-0.18507 0.4357,-0.2872 0.6973,-0.28711 0.1654,0.005 0.3287,0.051 0.4726,0.13281 0.9455,0.54308 2.1684,0.21626 2.7168,-0.72656 l 0.5098,-0.85156 a 0.50005,0.50005 0 0 0 0,-0.006 c 0.266,-0.45645 0.3393,-0.99921 0.2031,-1.5098 -0.1361,-0.51046 -0.4698,-0.94747 -0.9277,-1.2109 -0.2276,-0.13092 -0.3933,-0.34587 -0.461,-0.59961 -0.068,-0.25363 -0.033,-0.52315 0.1,-0.75 a 0.50005,0.50005 0 0 0 0,-0.004 c 0.085,-0.1488 0.2085,-0.27212 0.3575,-0.35742 a 0.50005,0.50005 0 0 0 0,-0.002 c 0.8992,-0.52597 1.2257,-1.6612 0.7774,-2.5859 a 0.50005,0.50005 0 0 0 -0.053,-0.13086 l -0.4863,-0.84375 c -0.5457,-0.94691 -1.7685,-1.2777 -2.7168,-0.73438 a 0.50005,0.50005 0 0 0 -0.01,0.004 c -0.2257,0.13295 -0.4944,0.17132 -0.7481,0.10547 -0.2536,-0.0658 -0.4709,-0.23099 -0.6035,-0.45703 a 0.50005,0.50005 0 0 0 0,-0.002 c -0.083,-0.14063 -0.1291,-0.29929 -0.1309,-0.46289 v 0.0195 c 0.015,-0.53821 -0.1872,-1.0612 -0.5625,-1.4473 -0.3752,-0.38603 -0.8913,-0.60374 -1.4297,-0.60352 H 1297 Z m 0,1 h 0.9786 c 0.2684,-1.2e-4 0.5257,0.10822 0.7129,0.30078 0.1871,0.19253 0.287,0.45232 0.2793,0.7207 a 0.50005,0.50005 0 0 0 0,0.0195 c 0,0.33821 0.097,0.6697 0.2695,0.96094 0.2667,0.45468 0.7026,0.78549 1.2129,0.91797 0.508,0.13186 1.049,0.0576 1.502,-0.20703 0.4801,-0.2751 1.0773,-0.11421 1.3535,0.36523 l 0.4687,0.8125 a 0.50005,0.50005 0 0 0 0.018,0.0352 c 0.2726,0.47764 0.1134,1.0719 -0.3613,1.3496 -0.3002,0.17284 -0.5497,0.42233 -0.7227,0.72266 v 0.002 c -0.2651,0.45616 -0.3391,0.99992 -0.2031,1.5098 0.1362,0.51038 0.4697,0.9455 0.9278,1.209 0.2275,0.13093 0.3932,0.3479 0.4609,0.60156 0.067,0.25234 0.031,0.51999 -0.1,0.74609 -7e-4,10e-4 7e-4,0.003 0,0.004 l -0.5117,0.85156 a 0.50005,0.50005 0 0 0 0,0.006 c -0.2778,0.47762 -0.8747,0.63719 -1.3535,0.36133 a 0.50005,0.50005 0 0 0 0,-0.002 c -0.2896,-0.1656 -0.6158,-0.25672 -0.9492,-0.26562 a 0.50005,0.50005 0 0 0 -0.01,0 c -0.5299,-0.003 -1.0394,0.20741 -1.4141,0.58203 -0.3745,0.37457 -0.5846,0.88233 -0.5821,1.4121 0,0.55042 -0.4411,0.98438 -0.9922,0.98438 h -0.9785 c -0.5543,0 -0.9941,-0.43796 -0.9941,-0.99219 a 0.50005,0.50005 0 0 0 0,-0.006 c 0,-0.33749 -0.096,-0.66827 -0.2676,-0.95898 -0.2621,-0.45657 -0.6945,-0.79164 -1.2031,-0.92774 -0.5068,-0.13569 -1.0479,-0.063 -1.502,0.19922 -0.2306,0.12928 -0.5016,0.16018 -0.7559,0.0879 -0.2542,-0.0722 -0.4695,-0.24144 -0.5976,-0.47266 a 0.50005,0.50005 0 0 0 0,-0.01 l -0.4922,-0.84766 c -0.2748,-0.47621 -0.1166,-1.0704 0.3594,-1.3457 0.6159,-0.35561 0.9961,-1.0154 0.9961,-1.7266 0,-0.71066 -0.3809,-1.3689 -0.9961,-1.7246 v -0.002 c -0.4765,-0.27816 -0.635,-0.87326 -0.3594,-1.3516 l 0.5156,-0.84766 a 0.50005,0.50005 0 0 0 0.01,-0.01 c 0.2762,-0.47941 0.8735,-0.64227 1.3535,-0.36719 0.2902,0.17048 0.6204,0.26409 0.957,0.26758 a 0.50005,0.50005 0 0 0 0.01,0 c 1.0839,1.4e-4 1.9766,-0.88107 1.9922,-1.9648 a 0.50005,0.50005 0 0 0 0,-0.01 c 0,-0.26248 0.102,-0.51319 0.2871,-0.69922 0.1852,-0.186 0.4369,-0.29102 0.6993,-0.29102 z m 0.4903,4 c -1.6509,0 -3,1.3491 -3,3 0,1.6509 1.3491,3 3,3 1.6509,0 3,-1.3491 3,-3 0,-1.6509 -1.3491,-3 -3,-3 z m 0,1 c 1.1105,0 2,0.88951 2,2 0,1.11049 -0.8895,2 -2,2 -1.1105,0 -2,-0.88951 -2,-2 0,-1.11049 0.8895,-2 2,-2 z"
           clip-rule="evenodd"
           color="#000000"
           color-rendering="auto"
           dominant-baseline="auto"
           fill="#ffffff"
           fill-rule="evenodd"
           image-rendering="auto"
           shape-rendering="auto"
           solid-color="#000000"
           stop-color="#000000"
           style="font-variant-ligatures:normal;font-variant-position:normal;font-variant-caps:normal;font-variant-numeric:normal;font-variant-alternates:normal;font-variant-east-asian:normal;font-feature-settings:normal;font-variation-settings:normal;text-indent:0;text-decoration-line:none;text-decoration-style:solid;text-decoration-color:#000000;text-transform:none;text-orientation:mixed;white-space:normal;shape-padding:0;shape-margin:0;inline-size:0;isolation:auto;mix-blend-mode:normal"
           id="path274" /><path
           class="ColorScheme-Text"
           d="m 1116,838.62993 c -1.108,0 -2,0.892 -2,2 v 10 c 0,1.108 0.892,2 2,2 h 10 c 1.108,0 2,-0.892 2,-2 v -10 c 0,-1.108 -0.892,-2 -2,-2 z m 0,3 h 10 c 0.554,0 1,0.446 1,1 v 8 c 0,0.554 -0.446,1 -1,1 h -10 c -0.554,0 -1,-0.446 -1,-1 v -8 c 0,-0.554 0.446,-1 1,-1 z m 3,2 v 6 l 4,-3 z"
           fill="#ffffff"
           id="path275"
           style="color:#363636" /><path
           d="m 1084,833.62993 c -1.662,0 -3,1.338 -3,3 v 18 c 0,1.662 1.338,3 3,3 h 18 c 1.662,0 3,-1.338 3,-3 v -18 c 0,-1.662 -1.338,-3 -3,-3 z m 15.475,5.9962 c 0.01,-4.1e-4 0.017,0 0.025,0 0.277,0 0.5,0.22299 0.5,0.49999 v 6.0038 c 0,0.20788 -0.1251,0.38525 -0.3047,0.46095 -0.01,0.003 -0.016,0.004 -0.023,0.008 -0.015,0.004 -0.031,0.0113 -0.047,0.0151 -0.024,0.008 -0.049,0.0113 -0.074,0.0151 -0.017,0.002 -0.034,0.002 -0.051,0.002 h -12.793 l 3.3887,3.3887 c 0.1959,0.19578 0.1959,0.51115 0,0.70704 -0.1958,0.19578 -0.5111,0.19578 -0.707,0 l -4.207,-4.209 c -0.01,-0.004 -0.01,-0.0113 -0.015,-0.0151 -0.01,-0.008 -0.013,-0.0113 -0.02,-0.0189 -0.01,-0.008 -0.012,-0.0113 -0.017,-0.0189 v -0.002 c -0.01,-0.008 -0.011,-0.0113 -0.015,-0.0189 -0.01,-0.008 -0.011,-0.0151 -0.015,-0.0227 0,-0.004 -0.01,-0.0113 -0.012,-0.0151 -10e-4,-0.002 0,-0.002 0,-0.004 v -0.002 c 0,-0.008 -0.01,-0.0113 -0.012,-0.0189 0,-0.004 -0.01,-0.008 -0.01,-0.0113 -7e-4,-10e-4 0,-0.003 0,-0.004 -10e-4,-0.002 0,-0.004 0,-0.008 0,-0.004 0,-0.008 -0.01,-0.0113 -6e-4,-10e-4 -10e-4,-0.003 0,-0.004 -10e-4,-0.002 -8e-4,-0.004 0,-0.008 0,-0.008 -0.01,-0.0151 -0.01,-0.0227 0,-0.008 -0.01,-0.0151 -0.01,-0.0227 v -0.002 c -4e-4,-0.001 0,-0.003 0,-0.004 0,-0.0113 -0.01,-0.0189 -0.01,-0.0302 -5e-4,-0.002 -10e-4,-0.004 0,-0.008 -8e-4,-0.003 0,-0.008 0,-0.0113 -10e-4,-0.008 -8e-4,-0.0113 0,-0.0189 -10e-4,-0.008 0,-0.0151 0,-0.0227 v -0.002 c -9e-4,-0.008 0,-0.0113 0,-0.0189 v -0.004 c 0,-0.0151 0,-0.0302 0,-0.0469 0,-0.008 -4e-4,-0.0151 0,-0.0227 v -0.002 c 4e-4,-0.008 10e-4,-0.0151 0,-0.0227 v -0.004 c 7e-4,-0.008 0,-0.0151 0,-0.0227 10e-4,-0.0113 0,-0.0189 0,-0.0302 8e-4,-0.004 10e-4,-0.008 0,-0.0113 9e-4,-0.004 0,-0.008 0,-0.0113 0,-0.0113 0.01,-0.0227 0.01,-0.034 5e-4,-10e-4 10e-4,-0.003 0,-0.004 v -0.002 c 0,-0.008 0.01,-0.0113 0.01,-0.0189 5e-4,-10e-4 10e-4,-0.003 0,-0.004 v -0.002 c 8e-4,-0.002 10e-4,-0.004 0,-0.008 0,-0.004 0.01,-0.0113 0.01,-0.0151 0,-0.008 0.01,-0.0189 0.014,-0.0265 0,-0.004 0.01,-0.0113 0.01,-0.0151 0,-0.008 0.01,-0.0189 0.015,-0.0264 0,-0.004 0.01,-0.0113 0.012,-0.0151 v -0.002 -0.008 c 0,-0.004 0.01,-0.008 0.012,-0.0113 v -0.004 c 0,-0.004 0.01,-0.008 0.01,-0.0113 0,-0.002 0,-0.002 0.01,-0.004 v -0.002 c 0.01,-0.008 0.011,-0.0113 0.017,-0.0189 l 4.2422,-4.2441 c 0.1959,-0.19578 0.5112,-0.19578 0.707,0 0.1959,0.19578 0.1959,0.51114 0,0.70703 l -3.3887,3.3906 h 12.293 v -5.492 c 0,-0.26834 0.2097,-0.48665 0.4747,-0.49999 z"
           fill="#ffffff"
           id="path276" /><path
           d="m 1258,833.62993 c -1.662,0 -3,1.338 -3,3 v 18 c 0,1.662 1.338,3 3,3 h 18 c 1.662,0 3,-1.338 3,-3 v -18 c 0,-1.662 -1.338,-3 -3,-3 z m 4.5,4.998 9,0.004 c 0.277,0 0.5,0.22299 0.5,0.50003 0,0.27704 -0.223,0.49999 -0.5,0.49999 h -8.5 v 5 h 7.5 c 0.277,0 0.5,0.22299 0.5,0.50003 0,0.27704 -0.223,0.49999 -0.5,0.49999 h -7.5 v 6 h 8.5 c 0.277,0 0.5,0.22299 0.5,0.49999 0,0.27704 -0.223,0.5 -0.5,0.5 h -9 c -0.277,0 -0.5,-0.22299 -0.5,-0.5 v -6.9746 c -4e-4,-0.0113 0,-0.0189 0,-0.0265 0,-0.0113 -4e-4,-0.0189 0,-0.0265 v -5.9746 c 0,-0.27704 0.2231,-0.49999 0.5,-0.49999 z"
           fill="#ffffff"
           id="path277" /><path
           d="m 1432,833.62993 c -1.662,0 -3,1.338 -3,3 v 18 c 0,1.662 1.338,3 3,3 h 18 c 1.662,0 3,-1.338 3,-3 v -18 c 0,-1.662 -1.338,-3 -3,-3 z m 9,5 a 7,7 0 0 1 5.7422,3 h -1.2734 a 6,6 0 0 0 -4.4688,-2 6,6 0 0 0 -6,6 6,6 0 0 0 6,6 6,6 0 0 0 4.4688,-2 h 1.2598 a 7,7 0 0 1 -5.7285,3 7,7 0 0 1 -7,-7 7,7 0 0 1 7,-7 z"
           fill="#ffffff"
           id="path278" /><text
           x="1281.2174"
           y="768.07422"
           fill="#ffffff"
           fill-rule="evenodd"
           font-family="Montserrat"
           font-size="18.036px"
           font-weight="300"
           stroke-linecap="square"
           stroke-width="1.503"
           text-anchor="middle"
           style="paint-order:stroke fill markers"
           xml:space="preserve"
           id="text281"><tspan
             x="1281.2174"
             y="768.07422"
             text-align="center"
             id="tspan279">Press the <tspan
   font-family="Montserrat"
   font-weight="bold"
   id="tspan278">Shortcut Key</tspan> to </tspan><tspan
             x="1281.2174"
             y="790.61932"
             text-align="center"
             id="tspan281">Enable the <tspan
   font-family="Montserrat"
   font-weight="bold"
   id="tspan280">Function</tspan></tspan></text></g></g></g><g
     id="sidebar"
     transform="translate(342,-1104.5)"><rect
       x="-1920"
       y="1271.3218"
       width="1920"
       height="1080"
       fill="#22212b"
       fill-rule="evenodd"
       style="fill:none;fill-opacity:1;paint-order:stroke fill markers"
       id="rect4"
       transform="scale(-1,1)" /><g
       id="g5"><g
         id="g235"
         transform="matrix(1.2755061,0,0,1.2755061,-1529.1285,2283.0286)"><rect
           style="fill:#ffffff;fill-opacity:1;stroke-width:0.548541"
           id="rect215"
           width="26"
           height="8"
           x="1919.01"
           y="1233.7373"
           rx="4"
           ry="4"
           transform="rotate(-45)" /><rect
           style="fill:#ffffff;fill-opacity:1;stroke-width:0.950101"
           id="rect216"
           width="78"
           height="8"
           x="1893.01"
           y="1264.3036"
           rx="4"
           ry="4"
           transform="rotate(-45)" /><rect
           style="fill:#ffffff;fill-opacity:1;stroke-width:1.26376"
           id="rect217"
           width="138"
           height="8"
           x="1863.01"
           y="1294.8698"
           rx="4"
           ry="4"
           transform="rotate(-45)" /><rect
           style="fill:#ffffff;fill-opacity:1;stroke-width:1.75125"
           id="rect218"
           width="265"
           height="8"
           x="1799.51"
           y="1356.0023"
           rx="4"
           ry="4"
           transform="rotate(-45)" /><rect
           style="fill:#ffffff;fill-opacity:1;stroke-width:1.52139"
           id="rect219"
           width="200"
           height="8"
           x="1832.01"
           y="1386.5685"
           rx="4"
           ry="4"
           transform="rotate(-45)" /><rect
           style="fill:#ffffff;fill-opacity:1;stroke-width:0.548541"
           id="rect220"
           width="26"
           height="8"
           x="1919.01"
           y="-1486.2672"
           rx="4"
           ry="4"
           transform="matrix(0.70710678,-0.70710678,-0.70710678,-0.70710678,0,0)" /><rect
           style="fill:#ffffff;fill-opacity:1;stroke-width:0.950101"
           id="rect221"
           width="78"
           height="8"
           x="1893.01"
           y="-1455.7009"
           rx="4"
           ry="4"
           transform="matrix(0.70710678,-0.70710678,-0.70710678,-0.70710678,0,0)" /><g
           id="g228"
           transform="rotate(-45,2174.0723,-775.61224)"><rect
             style="fill:#ffffff;fill-opacity:1;stroke-width:0.897167"
             id="rect222"
             width="69.549896"
             height="8"
             x="2053.0815"
             y="-439.03677"
             rx="4"
             ry="4" /><rect
             style="fill:#ffffff;fill-opacity:1;stroke-width:0.772362"
             id="rect223"
             width="51.54565"
             height="8"
             x="1918.0496"
             y="-439.03677"
             rx="4"
             ry="4" /><rect
             style="fill:#ffffff;fill-opacity:1;stroke-width:0.304278"
             id="rect224"
             width="8"
             height="8"
             x="1976.8429"
             y="-439.03677"
             rx="4"
             ry="4" /><rect
             style="fill:#ffffff;fill-opacity:1;stroke-width:0.304278"
             id="rect225"
             width="8"
             height="8"
             x="1992.0907"
             y="-439.03677"
             rx="4"
             ry="4" /><rect
             style="fill:#ffffff;fill-opacity:1;stroke-width:0.304278"
             id="rect226"
             width="8"
             height="8"
             x="2007.3384"
             y="-439.03677"
             rx="4"
             ry="4" /><rect
             style="fill:#ffffff;fill-opacity:1;stroke-width:0.304278"
             id="rect227"
             width="8"
             height="8"
             x="2022.5861"
             y="-439.03677"
             rx="4"
             ry="4" /><rect
             style="fill:#ffffff;fill-opacity:1;stroke-width:0.304278"
             id="rect228"
             width="8"
             height="8"
             x="2037.8339"
             y="-439.03677"
             rx="4"
             ry="4" /></g><g
           id="g234"
           transform="rotate(-45,2151.529,-802.72279)"><rect
             style="fill:#ffffff;fill-opacity:1;stroke-width:0.772362"
             id="rect229"
             width="51.54565"
             height="8"
             x="1928.7697"
             y="-339.33807"
             rx="4"
             ry="4" /><rect
             style="fill:#ffffff;fill-opacity:1;stroke-width:0.304278"
             id="rect230"
             width="8"
             height="8"
             x="1987.563"
             y="-339.33807"
             rx="4"
             ry="4" /><rect
             style="fill:#ffffff;fill-opacity:1;stroke-width:0.304278"
             id="rect231"
             width="8"
             height="8"
             x="2002.8108"
             y="-339.33807"
             rx="4"
             ry="4" /><rect
             style="fill:#ffffff;fill-opacity:1;stroke-width:0.304278"
             id="rect232"
             width="8"
             height="8"
             x="2018.0585"
             y="-339.33807"
             rx="4"
             ry="4" /><rect
             style="fill:#ffffff;fill-opacity:1;stroke-width:0.304278"
             id="rect233"
             width="8"
             height="8"
             x="2033.3062"
             y="-339.33807"
             rx="4"
             ry="4" /><rect
             style="fill:#ffffff;fill-opacity:1;stroke-width:0.304278"
             id="rect234"
             width="8"
             height="8"
             x="2048.554"
             y="-339.33807"
             rx="4"
             ry="4" /></g></g><g
         id="g4"><g
           id="g3"><rect
             x="-1224.1136"
             y="1353.9564"
             width="160"
             height="32"
             rx="16"
             ry="16"
             fill="#ffffff"
             stroke-width="1.7997"
             style="opacity:1;stroke-linecap:round;stroke-linejoin:round;paint-order:stroke fill markers"
             id="rect267"
             transform="scale(-1,1)" /><text
             x="1091.0245"
             y="1373.918"
             fill="#abc0e2"
             font-family="Montserrat"
             font-size="12.752px"
             stroke-width="0.26567"
             style="fill:#020413;fill-opacity:1;stroke-linecap:round;stroke-linejoin:round;paint-order:stroke fill markers"
             xml:space="preserve"
             id="text267"><tspan
               x="1091.0245"
               y="1373.918"
               fill="#abc0e2"
               font-family="Montserrat"
               stroke-width="0.26567"
               id="tspan267"
               style="fill:#020413;fill-opacity:1">Select Your System</tspan></text><path
             d="m 1078.5636,1363.7964 c 0.1278,0 0.2556,0.051 0.3535,0.1484 0.1959,0.1959 0.1959,0.5112 0,0.7071 l -4.8047,4.8027 h 9.5 c 0.277,0 0.5,0.223 0.5,0.5 0,0.277 -0.223,0.5 -0.5,0.5 h -9.5 l 4.8047,4.8027 c 0.1959,0.1958 0.1959,0.5111 0,0.707 -0.1959,0.1959 -0.5111,0.1959 -0.707,0 l -5.6582,-5.6562 c -0.1959,-0.1958 -0.1959,-0.5112 0,-0.707 l 5.6582,-5.6562 c 0.098,-0.098 0.2257,-0.1484 0.3535,-0.1485 z"
             fill="#abc0e2"
             stroke-width="1.7596"
             style="fill:#020413;fill-opacity:1;stroke-linecap:round;stroke-linejoin:round;paint-order:stroke fill markers"
             id="path268" /></g><g
           id="g2"
           transform="matrix(1.3550662,0,0,1.3550662,-511.2953,-815.87412)"><g
             transform="translate(1623,2242.1381)"
             id="g98"><path
               transform="translate(-189.38,32.5)"
               d="m 191.38,-30.5 c -1.108,0 -2,0.892 -2,2 v 9 c 0,1.108 0.892,2 2,2 h 12 c 1.108,0 2,-0.892 2,-2 v -9 c 0,-1.108 -0.892,-2 -2,-2 z m 0,1 h 12 c 0.554,0 1,0.446 1,1 v 9 c 0,0.554 -0.446,1 -1,1 h -12 c -0.554,0 -1,-0.446 -1,-1 v -9 c 0,-0.554 0.446,-1 1,-1 z m 1.7188,1 -0.71875,0.6875 2.625,2.8125 -2.5938,2.8125 0.6875,0.6875 2.9688,-3.1562 0.3125,-0.34375 -0.3125,-0.34375 z m 3.2812,7 v 1 h 4 v -1 z"
               fill="#ffffff"
               id="path98" /></g><g
             transform="translate(1449.4,2242.1381)"
             enable-background="new"
             id="g99"><path
               d="M 7.5098,-8.3933e-5 C 6.98171,-9.4355e-5 6.4741,0.20956607 6.1016,0.58389607 5.73135,0.95590607 5.52356,1.4616461 5.52348,1.9861961 5.51562,2.5339661 5.08086,2.9637461 4.53325,2.9647161 4.37039,2.9626861 4.2124,2.9170011 4.07231,2.8338561 A 0.50005,0.50005 0 0 0 4.0645,2.8299461 c -0.94825,-0.54336 -2.1712,-0.2126 -2.7168,0.73438 l -0.51562,0.84766 a 0.50005,0.50005 0 0 0 -0.005859,0.00977 c -0.54496,0.94581 -0.21898,2.168 0.72461,2.7168 a 0.50005,0.50005 0 0 0 0.00195,0.00195 c 0.30786,0.17772 0.49609,0.50395 0.49609,0.85938 0,0.35554 -0.18818,0.68159 -0.49609,0.85938 -0.94343,0.54576 -1.2713,1.7668999 -0.72656,2.7108999 a 0.50005,0.50005 0 0 0 0,0.002 l 0.48828,0.8418 c 0,0 0.00195,0.002 0.00195,0.002 0.25709,0.46235 0.68834,0.80462 1.1973,0.94922 0.50986,0.14497 1.0572,0.0795 1.5195,-0.17969 a 0.50005,0.50005 0 0 0 0.00586,-0.0039 c 0.22559,-0.13165 0.49383,-0.16716 0.74609,-0.09961 a 0.50005,0.50005 0 0 0 0.00195,0 c 0.25231,0.0675 0.46602,0.23231 0.5957,0.45898 a 0.50005,0.50005 0 0 0 0.00391,0.0078 c 0.083519,0.14076 0.12916,0.29929 0.13086,0.46289 0.00256,1.0925 0.89902,1.9883 1.9922,1.9883 h 0.97852 c 1.0911,0 1.987,-0.89332 1.9922,-1.9844 a 0.50005,0.50005 0 0 0 0,-0.0039 c -0.0013,-0.26322 0.10291,-0.51496 0.28906,-0.70117 0.18507,-0.18507 0.43568,-0.2872 0.69727,-0.28711 0.16548,0.0054 0.32874,0.05101 0.47266,0.13281 0.9455,0.54308 2.1684,0.21626 2.7168,-0.72656 l 0.50977,-0.85156 a 0.50005,0.50005 0 0 0 0.0039,-0.0059 c 0.26597,-0.45645 0.3393,-0.99921 0.20312,-1.5098 -0.13616,-0.5104599 -0.46983,-0.9474699 -0.92774,-1.2108999 -0.22759,-0.13092 -0.39325,-0.34587 -0.46094,-0.59961 -0.06766,-0.25363 -0.03256,-0.52315 0.09961,-0.75 a 0.50005,0.50005 0 0 0 0.002,-0.00391 c 0.08524,-0.1488 0.20851,-0.27212 0.35742,-0.35742 a 0.50005,0.50005 0 0 0 0.0039,-0.00195 c 0.89916,-0.52597 1.2257,-1.6612 0.77734,-2.5859 a 0.50005,0.50005 0 0 0 -0.05273,-0.13086 l -0.48633,-0.84375 c -0.54562,-0.94691 -1.7685,-1.2777 -2.7168,-0.73438 a 0.50005,0.50005 0 0 0 -0.0059,0.00391 c -0.22567,0.13295 -0.49439,0.17132 -0.74805,0.10547 -0.25358,-0.06584 -0.47094,-0.23099 -0.60352,-0.45703 a 0.50005,0.50005 0 0 0 0,-0.00195 c -0.08345,-0.14063 -0.12913,-0.29929 -0.13086,-0.46289 v 0.019531 c 0.01552,-0.53821 -0.1872,-1.06120003 -0.5625,-1.44730003 -0.37528,-0.38603 -0.89133,-0.603740003 -1.4297,-0.603520003 h -0.97852 z m 0,1.000000003 h 0.97852 c 0.26844,-1.1316e-4 0.52569,0.10822003 0.71289,0.30078003 0.18718,0.19253 0.28703,0.45232 0.2793,0.7207 a 0.50005,0.50005 0 0 0 0,0.019531 c 0.00358,0.33821 0.097494,0.6697 0.26953,0.96094 0.26667,0.45468 0.70265,0.78549 1.2129,0.91797 0.50797,0.13186 1.049,0.057654 1.502,-0.20703 0.48013,-0.2751 1.0773,-0.11421 1.3535,0.36523 l 0.46875,0.8125 a 0.50005,0.50005 0 0 0 0.01758,0.035156 c 0.27261,0.47764 0.11336,1.0719 -0.36133,1.3496 -0.30024,0.17284 -0.54975,0.42233 -0.72266,0.72266 v 0.00195 c -0.26515,0.45616 -0.33913,0.99992 -0.20312,1.5098 0.13615,0.51038 0.4697,0.9455 0.92773,1.209 0.22756,0.13093 0.39328,0.3478999 0.46094,0.6015599 0.0673,0.25234 0.03091,0.51999 -0.09961,0.74609 -6.72e-4,0.0012 6.76e-4,0.0027 0,0.0039 l -0.51172,0.85156 a 0.50005,0.50005 0 0 0 -0.0039,0.0059 c -0.27779,0.47762 -0.87471,0.63719 -1.3535,0.36133 a 0.50005,0.50005 0 0 0 -0.002,-0.002 c -0.2896,-0.1656 -0.61582,-0.25672 -0.94922,-0.26562 a 0.50005,0.50005 0 0 0 -0.0098,0 c -0.52982,-0.0026 -1.0394,0.20741 -1.4141,0.58203 -0.37447,0.37457 -0.58457,0.88233 -0.58203,1.4121 -0.00472,0.55042 -0.44117,0.98438 -0.99219,0.98438 H 7.50974 c -0.55436,0 -0.99414,-0.43796 -0.99414,-0.99219 a 0.50005,0.50005 0 0 0 0,-0.0059 c -0.00351,-0.33749 -0.096364,-0.66827 -0.26758,-0.95898 -0.26208,-0.45657 -0.69447,-0.79164 -1.2031,-0.92774 -0.50677,-0.13569 -1.0479,-0.06304 -1.502,0.19922 -0.23061,0.12928 -0.5016,0.16018 -0.75586,0.08789 -0.25426,-0.07224 -0.46952,-0.24144 -0.59766,-0.47266 a 0.50005,0.50005 0 0 0 -0.00391,-0.0098 L 1.6933,11.072113 c -0.27481,-0.47621 -0.11658,-1.0704 0.35938,-1.3456999 0.61589,-0.35561 0.99609,-1.0154 0.99609,-1.7266 0,-0.71066 -0.38088,-1.3689 -0.99609,-1.7246 v -0.00195 C 1.5762,5.9951031 1.41771,5.4000031 1.6933,4.9216631 l 0.51562,-0.84766 a 0.50005,0.50005 0 0 0 0.00586,-0.00977 c 0.27621,-0.47941 0.87345,-0.64227 1.3535,-0.36719 0.29021,0.17048 0.62038,0.26409 0.95703,0.26758 a 0.50005,0.50005 0 0 0 0.00586,0 c 1.0839,1.326e-4 1.9766,-0.88107 1.9922,-1.9648 a 0.50005,0.50005 0 0 0 0,-0.00977 c -0.00125,-0.26248 0.10196,-0.51319 0.28711,-0.69922 0.18511,-0.186 0.43681,-0.29102003 0.69922,-0.29102003 z M 8.00003,4.9999161 c -1.6509,0 -3,1.3491 -3,3 0,1.6509 1.3491,2.9999999 3,2.9999999 1.6509,0 3,-1.3490999 3,-2.9999999 0,-1.6509 -1.3491,-3 -3,-3 z m 0,1 c 1.1105,0 2,0.88951 2,2 0,1.11049 -0.88951,2 -2,2 -1.11049,0 -2,-0.88951 -2,-2 0,-1.11049 0.88951,-2 2,-2 z"
               clip-rule="evenodd"
               color="#000000"
               color-rendering="auto"
               dominant-baseline="auto"
               fill="#ffffff"
               fill-rule="evenodd"
               image-rendering="auto"
               shape-rendering="auto"
               solid-color="#000000"
               stop-color="#000000"
               style="font-variant-ligatures:normal;font-variant-position:normal;font-variant-caps:normal;font-variant-numeric:normal;font-variant-alternates:normal;font-variant-east-asian:normal;font-feature-settings:normal;font-variation-settings:normal;text-indent:0;text-decoration-line:none;text-decoration-style:solid;text-decoration-color:#000000;text-transform:none;text-orientation:mixed;white-space:normal;shape-padding:0;shape-margin:0;inline-size:0;isolation:auto;mix-blend-mode:normal"
               id="path99" /></g><g
             transform="translate(1273,2242.1381)"
             id="g100"><path
               class="ColorScheme-Text"
               transform="translate(161,37)"
               d="m -158,-36 c -1.108,0 -2,0.892 -2,2 v 10 c 0,1.108 0.892,2 2,2 h 10 c 1.108,0 2,-0.892 2,-2 v -10 c 0,-1.108 -0.892,-2 -2,-2 z m 0,3 h 10 c 0.554,0 1,0.446 1,1 v 8 c 0,0.554 -0.446,1 -1,1 h -10 c -0.554,0 -1,-0.446 -1,-1 v -8 c 0,-0.554 0.446,-1 1,-1 z m 3,2 v 6 l 4,-3 z"
               fill="#ffffff"
               id="path100"
               style="color:#363636" /></g><path
             d="m 1244,2238.1381 c -1.662,0 -3,1.338 -3,3 v 18 c 0,1.662 1.338,3 3,3 h 18 c 1.662,0 3,-1.338 3,-3 v -18 c 0,-1.662 -1.338,-3 -3,-3 z m 15.475,5.9962 c 0.01,-4e-4 0.017,0 0.025,0 0.277,0 0.5,0.223 0.5,0.5 v 6.0038 c 0,0.2079 -0.1251,0.3852 -0.3047,0.4609 -0.01,0 -0.016,0 -0.023,0.01 -0.016,0 -0.031,0.011 -0.047,0.015 -0.024,0.01 -0.049,0.011 -0.074,0.015 -0.017,0 -0.034,0 -0.051,0 h -12.793 l 3.3887,3.3887 c 0.1959,0.1958 0.1959,0.5112 0,0.7071 -0.1958,0.1958 -0.5111,0.1958 -0.707,0 l -4.207,-4.209 c -0.01,0 -0.01,-0.011 -0.016,-0.015 -0.01,-0.01 -0.013,-0.011 -0.02,-0.019 -0.01,-0.01 -0.012,-0.011 -0.017,-0.019 v 0 c -0.01,-0.01 -0.011,-0.011 -0.016,-0.019 -0.01,-0.01 -0.011,-0.015 -0.015,-0.023 0,0 -0.01,-0.011 -0.012,-0.015 v 0 0 c 0,-0.01 -0.01,-0.011 -0.012,-0.019 0,0 -0.01,-0.01 -0.01,-0.011 -6e-4,0 -9e-4,0 0,0 v -0.01 c 0,0 0,-0.01 -0.01,-0.011 -6e-4,-10e-4 0,0 0,0 0,0 -9e-4,0 0,-0.01 0,-0.01 -0.01,-0.015 -0.01,-0.023 0,-0.01 -0.01,-0.015 -0.01,-0.023 v 0 c -5e-4,0 0,0 0,0 0,-0.011 -0.01,-0.019 -0.01,-0.03 -6e-4,0 0,0 0,-0.01 -8e-4,0 0,-0.01 0,-0.011 0,-0.01 -8e-4,-0.011 0,-0.019 v -0.023 0 c -9e-4,-0.01 0,-0.011 0,-0.019 v 0 -0.047 c 0,-0.01 -4e-4,-0.015 0,-0.023 v 0 c 3e-4,-0.01 9e-4,-0.015 0,-0.023 v 0 c 8e-4,-0.01 0,-0.015 0,-0.023 v -0.03 c 8e-4,0 9e-4,-0.01 0,-0.011 v -0.011 c 0,-0.011 0.01,-0.023 0.01,-0.034 5e-4,0 0,0 0,0 v 0 c 0,-0.01 0.01,-0.011 0.01,-0.019 5e-4,0 9e-4,0 0,0 v 0 c 9e-4,0 0,0 0,-0.01 0,0 0.01,-0.011 0.01,-0.015 0.01,-0.01 0.01,-0.019 0.014,-0.026 0,0 0.01,-0.011 0.01,-0.015 0.01,-0.01 0.01,-0.019 0.015,-0.026 0,0 0.01,-0.011 0.012,-0.015 v 0 -0.01 c 0,0 0.01,-0.01 0.012,-0.011 v 0 c 0,0 0.01,-0.01 0.01,-0.011 0,0 0,0 0.01,0 v 0 c 0.01,-0.01 0.011,-0.011 0.017,-0.019 l 4.2421,-4.2441 c 0.1959,-0.1958 0.5112,-0.1958 0.7071,0 0.1958,0.1958 0.1958,0.5111 0,0.707 l -3.3887,3.3906 h 12.293 v -5.492 c 0,-0.2683 0.2096,-0.4866 0.4746,-0.5 z"
             fill="#ffffff"
             id="path101" /><path
             d="m 1418,2238.1381 c -1.662,0 -3,1.338 -3,3 v 18 c 0,1.662 1.338,3 3,3 h 18 c 1.662,0 3,-1.338 3,-3 v -18 c 0,-1.662 -1.338,-3 -3,-3 z m 4.5,4.998 h 9 c 0.277,0 0.5,0.223 0.5,0.5 0,0.2771 -0.223,0.5 -0.5,0.5 h -8.5 v 5 h 7.5 c 0.277,0 0.5,0.223 0.5,0.5001 0,0.277 -0.223,0.4999 -0.5,0.4999 h -7.5 v 6 h 8.5 c 0.277,0 0.5,0.223 0.5,0.5 0,0.2771 -0.223,0.5 -0.5,0.5 h -9 c -0.277,0 -0.5,-0.223 -0.5,-0.5 v -6.9746 c -4e-4,-0.011 0,-0.019 0,-0.026 0,-0.011 -4e-4,-0.019 0,-0.026 v -5.9746 c 0,-0.277 0.223,-0.5 0.5,-0.5 z"
             fill="#ffffff"
             id="path102" /><path
             d="m 1592,2238.1381 c -1.662,0 -3,1.338 -3,3 v 18 c 0,1.662 1.338,3 3,3 h 18 c 1.662,0 3,-1.338 3,-3 v -18 c 0,-1.662 -1.338,-3 -3,-3 z m 9,5 a 7,7 0 0 1 5.7422,3 h -1.2735 a 6,6 0 0 0 -4.4687,-2 6,6 0 0 0 -6,6 6,6 0 0 0 6,6 6,6 0 0 0 4.4687,-2 h 1.2598 a 7,7 0 0 1 -5.7285,3 7,7 0 0 1 -7,-7 7,7 0 0 1 7,-7 z"
             fill="#ffffff"
             id="path103" /><text
             x="1441.1685"
             y="2172.5869"
             fill="#ffffff"
             fill-rule="evenodd"
             font-family="Montserrat"
             font-size="18.036px"
             font-weight="300"
             stroke-linecap="square"
             stroke-width="1.503"
             text-anchor="middle"
             style="paint-order:stroke fill markers"
             xml:space="preserve"
             id="text116"><tspan
               x="1441.1685"
               y="2172.5869"
               text-align="center"
               id="tspan114">Press the <tspan
   font-family="Montserrat"
   font-weight="bold"
   id="tspan113">Shortcut Key</tspan> to </tspan><tspan
               x="1441.1685"
               y="2195.1321"
               text-align="center"
               id="tspan116">Enable the <tspan
   font-family="Montserrat"
   font-weight="bold"
   id="tspan115">Function</tspan></tspan></text><g
             transform="translate(1623,2242.1381)"
             id="g263"><path
               transform="translate(-189.38,32.5)"
               d="m 191.38,-30.5 c -1.108,0 -2,0.892 -2,2 v 9 c 0,1.108 0.892,2 2,2 h 12 c 1.108,0 2,-0.892 2,-2 v -9 c 0,-1.108 -0.892,-2 -2,-2 z m 0,1 h 12 c 0.554,0 1,0.446 1,1 v 9 c 0,0.554 -0.446,1 -1,1 h -12 c -0.554,0 -1,-0.446 -1,-1 v -9 c 0,-0.554 0.446,-1 1,-1 z m 1.7188,1 -0.71875,0.6875 2.625,2.8125 -2.5938,2.8125 0.6875,0.6875 2.9688,-3.1562 0.3125,-0.34375 -0.3125,-0.34375 z m 3.2812,7 v 1 h 4 v -1 z"
               fill="#ffffff"
               id="path262" /></g><g
             transform="translate(1449.4,2242.1381)"
             enable-background="new"
             id="g264"><path
               d="M 7.5098,-8.3933e-5 C 6.98171,-9.4355e-5 6.4741,0.20956607 6.1016,0.58389607 5.73135,0.95590607 5.52356,1.4616461 5.52348,1.9861961 5.51562,2.5339661 5.08086,2.9637461 4.53325,2.9647161 4.37039,2.9626861 4.2124,2.9170011 4.07231,2.8338561 A 0.50005,0.50005 0 0 0 4.0645,2.8299461 c -0.94825,-0.54336 -2.1712,-0.2126 -2.7168,0.73438 l -0.51562,0.84766 a 0.50005,0.50005 0 0 0 -0.005859,0.00977 c -0.54496,0.94581 -0.21898,2.168 0.72461,2.7168 a 0.50005,0.50005 0 0 0 0.00195,0.00195 c 0.30786,0.17772 0.49609,0.50395 0.49609,0.85938 0,0.35554 -0.18818,0.68159 -0.49609,0.85938 -0.94343,0.54576 -1.2713,1.7668999 -0.72656,2.7108999 a 0.50005,0.50005 0 0 0 0,0.002 l 0.48828,0.8418 c 0,0 0.00195,0.002 0.00195,0.002 0.25709,0.46235 0.68834,0.80462 1.1973,0.94922 0.50986,0.14497 1.0572,0.0795 1.5195,-0.17969 a 0.50005,0.50005 0 0 0 0.00586,-0.0039 c 0.22559,-0.13165 0.49383,-0.16716 0.74609,-0.09961 a 0.50005,0.50005 0 0 0 0.00195,0 c 0.25231,0.0675 0.46602,0.23231 0.5957,0.45898 a 0.50005,0.50005 0 0 0 0.00391,0.0078 c 0.083519,0.14076 0.12916,0.29929 0.13086,0.46289 0.00256,1.0925 0.89902,1.9883 1.9922,1.9883 h 0.97852 c 1.0911,0 1.987,-0.89332 1.9922,-1.9844 a 0.50005,0.50005 0 0 0 0,-0.0039 c -0.0013,-0.26322 0.10291,-0.51496 0.28906,-0.70117 0.18507,-0.18507 0.43568,-0.2872 0.69727,-0.28711 0.16548,0.0054 0.32874,0.05101 0.47266,0.13281 0.9455,0.54308 2.1684,0.21626 2.7168,-0.72656 l 0.50977,-0.85156 a 0.50005,0.50005 0 0 0 0.0039,-0.0059 c 0.26597,-0.45645 0.3393,-0.99921 0.20312,-1.5098 -0.13616,-0.5104599 -0.46983,-0.9474699 -0.92774,-1.2108999 -0.22759,-0.13092 -0.39325,-0.34587 -0.46094,-0.59961 -0.06766,-0.25363 -0.03256,-0.52315 0.09961,-0.75 a 0.50005,0.50005 0 0 0 0.002,-0.00391 c 0.08524,-0.1488 0.20851,-0.27212 0.35742,-0.35742 a 0.50005,0.50005 0 0 0 0.0039,-0.00195 c 0.89916,-0.52597 1.2257,-1.6612 0.77734,-2.5859 a 0.50005,0.50005 0 0 0 -0.05273,-0.13086 l -0.48633,-0.84375 c -0.54562,-0.94691 -1.7685,-1.2777 -2.7168,-0.73438 a 0.50005,0.50005 0 0 0 -0.0059,0.00391 c -0.22567,0.13295 -0.49439,0.17132 -0.74805,0.10547 -0.25358,-0.06584 -0.47094,-0.23099 -0.60352,-0.45703 a 0.50005,0.50005 0 0 0 0,-0.00195 c -0.08345,-0.14063 -0.12913,-0.29929 -0.13086,-0.46289 v 0.019531 c 0.01552,-0.53821 -0.1872,-1.06120003 -0.5625,-1.44730003 -0.37528,-0.38603 -0.89133,-0.603740003 -1.4297,-0.603520003 h -0.97852 z m 0,1.000000003 h 0.97852 c 0.26844,-1.1316e-4 0.52569,0.10822003 0.71289,0.30078003 0.18718,0.19253 0.28703,0.45232 0.2793,0.7207 a 0.50005,0.50005 0 0 0 0,0.019531 c 0.00358,0.33821 0.097494,0.6697 0.26953,0.96094 0.26667,0.45468 0.70265,0.78549 1.2129,0.91797 0.50797,0.13186 1.049,0.057654 1.502,-0.20703 0.48013,-0.2751 1.0773,-0.11421 1.3535,0.36523 l 0.46875,0.8125 a 0.50005,0.50005 0 0 0 0.01758,0.035156 c 0.27261,0.47764 0.11336,1.0719 -0.36133,1.3496 -0.30024,0.17284 -0.54975,0.42233 -0.72266,0.72266 v 0.00195 c -0.26515,0.45616 -0.33913,0.99992 -0.20312,1.5098 0.13615,0.51038 0.4697,0.9455 0.92773,1.209 0.22756,0.13093 0.39328,0.3478999 0.46094,0.6015599 0.0673,0.25234 0.03091,0.51999 -0.09961,0.74609 -6.72e-4,0.0012 6.76e-4,0.0027 0,0.0039 l -0.51172,0.85156 a 0.50005,0.50005 0 0 0 -0.0039,0.0059 c -0.27779,0.47762 -0.87471,0.63719 -1.3535,0.36133 a 0.50005,0.50005 0 0 0 -0.002,-0.002 c -0.2896,-0.1656 -0.61582,-0.25672 -0.94922,-0.26562 a 0.50005,0.50005 0 0 0 -0.0098,0 c -0.52982,-0.0026 -1.0394,0.20741 -1.4141,0.58203 -0.37447,0.37457 -0.58457,0.88233 -0.58203,1.4121 -0.00472,0.55042 -0.44117,0.98438 -0.99219,0.98438 H 7.50974 c -0.55436,0 -0.99414,-0.43796 -0.99414,-0.99219 a 0.50005,0.50005 0 0 0 0,-0.0059 c -0.00351,-0.33749 -0.096364,-0.66827 -0.26758,-0.95898 -0.26208,-0.45657 -0.69447,-0.79164 -1.2031,-0.92774 -0.50677,-0.13569 -1.0479,-0.06304 -1.502,0.19922 -0.23061,0.12928 -0.5016,0.16018 -0.75586,0.08789 -0.25426,-0.07224 -0.46952,-0.24144 -0.59766,-0.47266 a 0.50005,0.50005 0 0 0 -0.00391,-0.0098 L 1.6933,11.072113 c -0.27481,-0.47621 -0.11658,-1.0704 0.35938,-1.3456999 0.61589,-0.35561 0.99609,-1.0154 0.99609,-1.7266 0,-0.71066 -0.38088,-1.3689 -0.99609,-1.7246 v -0.00195 C 1.5762,5.9951031 1.41771,5.4000031 1.6933,4.9216631 l 0.51562,-0.84766 a 0.50005,0.50005 0 0 0 0.00586,-0.00977 c 0.27621,-0.47941 0.87345,-0.64227 1.3535,-0.36719 0.29021,0.17048 0.62038,0.26409 0.95703,0.26758 a 0.50005,0.50005 0 0 0 0.00586,0 c 1.0839,1.326e-4 1.9766,-0.88107 1.9922,-1.9648 a 0.50005,0.50005 0 0 0 0,-0.00977 c -0.00125,-0.26248 0.10196,-0.51319 0.28711,-0.69922 0.18511,-0.186 0.43681,-0.29102003 0.69922,-0.29102003 z M 8.00003,4.9999161 c -1.6509,0 -3,1.3491 -3,3 0,1.6509 1.3491,2.9999999 3,2.9999999 1.6509,0 3,-1.3490999 3,-2.9999999 0,-1.6509 -1.3491,-3 -3,-3 z m 0,1 c 1.1105,0 2,0.88951 2,2 0,1.11049 -0.88951,2 -2,2 -1.11049,0 -2,-0.88951 -2,-2 0,-1.11049 0.88951,-2 2,-2 z"
               clip-rule="evenodd"
               color="#000000"
               color-rendering="auto"
               dominant-baseline="auto"
               fill="#ffffff"
               fill-rule="evenodd"
               image-rendering="auto"
               shape-rendering="auto"
               solid-color="#000000"
               stop-color="#000000"
               style="font-variant-ligatures:normal;font-variant-position:normal;font-variant-caps:normal;font-variant-numeric:normal;font-variant-alternates:normal;font-variant-east-asian:normal;font-feature-settings:normal;font-variation-settings:normal;text-indent:0;text-decoration-line:none;text-decoration-style:solid;text-decoration-color:#000000;text-transform:none;text-orientation:mixed;white-space:normal;shape-padding:0;shape-margin:0;inline-size:0;isolation:auto;mix-blend-mode:normal"
               id="path263" /></g><g
             transform="translate(1273,2242.1381)"
             id="g265"><path
               class="ColorScheme-Text"
               transform="translate(161,37)"
               d="m -158,-36 c -1.108,0 -2,0.892 -2,2 v 10 c 0,1.108 0.892,2 2,2 h 10 c 1.108,0 2,-0.892 2,-2 v -10 c 0,-1.108 -0.892,-2 -2,-2 z m 0,3 h 10 c 0.554,0 1,0.446 1,1 v 8 c 0,0.554 -0.446,1 -1,1 h -10 c -0.554,0 -1,-0.446 -1,-1 v -8 c 0,-0.554 0.446,-1 1,-1 z m 3,2 v 6 l 4,-3 z"
               fill="#ffffff"
               id="path264"
               style="color:#363636" /></g><path
             d="m 1244,2238.1381 c -1.662,0 -3,1.338 -3,3 v 18 c 0,1.662 1.338,3 3,3 h 18 c 1.662,0 3,-1.338 3,-3 v -18 c 0,-1.662 -1.338,-3 -3,-3 z m 15.475,5.9962 c 0.01,-4e-4 0.017,0 0.025,0 0.277,0 0.5,0.223 0.5,0.5 v 6.0038 c 0,0.2079 -0.1251,0.3852 -0.3047,0.4609 -0.01,0 -0.016,0 -0.023,0.01 -0.016,0 -0.031,0.011 -0.047,0.015 -0.024,0.01 -0.049,0.011 -0.074,0.015 -0.017,0 -0.034,0 -0.051,0 h -12.793 l 3.3887,3.3887 c 0.1959,0.1958 0.1959,0.5112 0,0.7071 -0.1958,0.1958 -0.5111,0.1958 -0.707,0 l -4.207,-4.209 c -0.01,0 -0.01,-0.011 -0.016,-0.015 -0.01,-0.01 -0.013,-0.011 -0.02,-0.019 -0.01,-0.01 -0.012,-0.011 -0.017,-0.019 v 0 c -0.01,-0.01 -0.011,-0.011 -0.016,-0.019 -0.01,-0.01 -0.011,-0.015 -0.015,-0.023 0,0 -0.01,-0.011 -0.012,-0.015 v 0 0 c 0,-0.01 -0.01,-0.011 -0.012,-0.019 0,0 -0.01,-0.01 -0.01,-0.011 -6e-4,0 -9e-4,0 0,0 v -0.01 c 0,0 0,-0.01 -0.01,-0.011 -6e-4,-10e-4 0,0 0,0 0,0 -9e-4,0 0,-0.01 0,-0.01 -0.01,-0.015 -0.01,-0.023 0,-0.01 -0.01,-0.015 -0.01,-0.023 v 0 c -5e-4,0 0,0 0,0 0,-0.011 -0.01,-0.019 -0.01,-0.03 -6e-4,0 0,0 0,-0.01 -8e-4,0 0,-0.01 0,-0.011 0,-0.01 -8e-4,-0.011 0,-0.019 v -0.023 0 c -9e-4,-0.01 0,-0.011 0,-0.019 v 0 -0.047 c 0,-0.01 -4e-4,-0.015 0,-0.023 v 0 c 3e-4,-0.01 9e-4,-0.015 0,-0.023 v 0 c 8e-4,-0.01 0,-0.015 0,-0.023 v -0.03 c 8e-4,0 9e-4,-0.01 0,-0.011 v -0.011 c 0,-0.011 0.01,-0.023 0.01,-0.034 5e-4,0 0,0 0,0 v 0 c 0,-0.01 0.01,-0.011 0.01,-0.019 5e-4,0 9e-4,0 0,0 v 0 c 9e-4,0 0,0 0,-0.01 0,0 0.01,-0.011 0.01,-0.015 0.01,-0.01 0.01,-0.019 0.014,-0.026 0,0 0.01,-0.011 0.01,-0.015 0.01,-0.01 0.01,-0.019 0.015,-0.026 0,0 0.01,-0.011 0.012,-0.015 v 0 -0.01 c 0,0 0.01,-0.01 0.012,-0.011 v 0 c 0,0 0.01,-0.01 0.01,-0.011 0,0 0,0 0.01,0 v 0 c 0.01,-0.01 0.011,-0.011 0.017,-0.019 l 4.2421,-4.2441 c 0.1959,-0.1958 0.5112,-0.1958 0.7071,0 0.1958,0.1958 0.1958,0.5111 0,0.707 l -3.3887,3.3906 h 12.293 v -5.492 c 0,-0.2683 0.2096,-0.4866 0.4746,-0.5 z"
             fill="#ffffff"
             id="path265" /><path
             d="m 1418,2238.1381 c -1.662,0 -3,1.338 -3,3 v 18 c 0,1.662 1.338,3 3,3 h 18 c 1.662,0 3,-1.338 3,-3 v -18 c 0,-1.662 -1.338,-3 -3,-3 z m 4.5,4.998 h 9 c 0.277,0 0.5,0.223 0.5,0.5 0,0.2771 -0.223,0.5 -0.5,0.5 h -8.5 v 5 h 7.5 c 0.277,0 0.5,0.223 0.5,0.5001 0,0.277 -0.223,0.4999 -0.5,0.4999 h -7.5 v 6 h 8.5 c 0.277,0 0.5,0.223 0.5,0.5 0,0.2771 -0.223,0.5 -0.5,0.5 h -9 c -0.277,0 -0.5,-0.223 -0.5,-0.5 v -6.9746 c -4e-4,-0.011 0,-0.019 0,-0.026 0,-0.011 -4e-4,-0.019 0,-0.026 v -5.9746 c 0,-0.277 0.223,-0.5 0.5,-0.5 z"
             fill="#ffffff"
             id="path266" /><path
             d="m 1592,2238.1381 c -1.662,0 -3,1.338 -3,3 v 18 c 0,1.662 1.338,3 3,3 h 18 c 1.662,0 3,-1.338 3,-3 v -18 c 0,-1.662 -1.338,-3 -3,-3 z m 9,5 a 7,7 0 0 1 5.7422,3 h -1.2735 a 6,6 0 0 0 -4.4687,-2 6,6 0 0 0 -6,6 6,6 0 0 0 6,6 6,6 0 0 0 4.4687,-2 h 1.2598 a 7,7 0 0 1 -5.7285,3 7,7 0 0 1 -7,-7 7,7 0 0 1 7,-7 z"
             fill="#ffffff"
             id="path267" /><text
             x="1441.1685"
             y="2172.5869"
             fill="#ffffff"
             fill-rule="evenodd"
             font-family="Montserrat"
             font-size="18.036px"
             font-weight="300"
             stroke-linecap="square"
             stroke-width="1.503"
             text-anchor="middle"
             style="paint-order:stroke fill markers"
             xml:space="preserve"
             id="text271"><tspan
               x="1441.1685"
               y="2172.5869"
               text-align="center"
               id="tspan269">Press the <tspan
   font-family="Montserrat"
   font-weight="bold"
   id="tspan268">Shortcut Key</tspan> to </tspan><tspan
               x="1441.1685"
               y="2195.1321"
               text-align="center"
               id="tspan271">Enable the <tspan
   font-family="Montserrat"
   font-weight="bold"
   id="tspan270">Function</tspan></tspan></text></g></g></g></g></svg>
